<?xml version="1.0" standalone="no"?>
<!DOCTYPE svg PUBLIC "-//W3C//DTD SVG 20010904//EN"
 "http://www.w3.org/TR/2001/REC-SVG-20010904/DTD/svg10.dtd">
<svg version="1.0" xmlns="http://www.w3.org/2000/svg"
 width="735.000000pt" height="840.000000pt" viewBox="0 0 735.000000 840.000000"
 preserveAspectRatio="xMidYMid meet">
<metadata>
Created by potrace 1.16, written by Peter Selinger 2001-2019
</metadata>
<g transform="translate(0.000000,840.000000) scale(0.100000,-0.100000)"
fill="currentColor" stroke="none">
<path d="M2604 7624 c-21 -27 -58 -67 -82 -88 -29 -27 -42 -46 -42 -65 0 -14
-7 -39 -16 -56 -8 -16 -43 -91 -77 -165 -34 -74 -72 -151 -85 -170 -13 -19
-35 -56 -48 -82 -13 -26 -31 -51 -40 -56 -11 -6 -15 -16 -10 -27 4 -11 -3 -29
-19 -51 -14 -18 -25 -35 -25 -39 0 -3 -18 -30 -40 -60 -22 -30 -38 -55 -36
-55 3 0 -15 -33 -40 -72 -24 -40 -55 -95 -68 -123 -39 -81 -102 -206 -130
-258 -14 -26 -26 -54 -26 -61 0 -7 -11 -30 -25 -50 -14 -20 -25 -43 -25 -50 0
-8 -7 -19 -15 -26 -18 -15 -20 -40 -2 -39 14 0 77 84 77 103 0 7 18 35 39 62
21 27 58 85 81 129 85 159 128 234 151 264 11 13 19 29 19 36 0 7 7 18 16 26
9 7 37 56 64 108 26 53 66 117 89 143 23 25 41 55 41 65 0 11 13 37 30 59 16
21 30 45 30 52 0 7 9 30 20 50 28 52 70 144 70 154 0 5 15 30 33 56 17 26 40
67 51 92 10 25 36 80 58 123 32 62 38 83 31 100 l-10 21 -39 -50z"/>
<path d="M3539 7511 c-42 -43 -87 -98 -99 -122 -12 -23 -43 -68 -69 -99 -26
-31 -53 -72 -61 -91 -18 -45 -96 -137 -137 -162 -27 -16 -33 -25 -33 -53 0
-22 -6 -37 -15 -40 -13 -5 -22 -34 -11 -34 8 0 173 71 206 89 8 4 19 33 25 65
9 53 25 78 58 89 5 1 11 14 12 28 3 29 16 53 78 150 39 61 65 98 140 196 33
43 34 63 6 63 -14 0 -51 -29 -100 -79z"/>
<path d="M3852 7308 c-18 -23 -32 -50 -32 -60 0 -11 -5 -28 -10 -38 -6 -11 -8
-31 -4 -44 l6 -25 31 20 c18 10 40 19 49 19 10 0 33 8 53 17 34 16 45 36 25
48 -5 3 -10 12 -10 19 0 12 -63 86 -72 86 -2 0 -18 -19 -36 -42z"/>
<path d="M1914 7268 c-9 -18 -25 -44 -35 -57 -11 -13 -19 -31 -19 -41 0 -9 -9
-25 -21 -36 -11 -10 -36 -46 -54 -79 -19 -33 -45 -75 -59 -94 -14 -19 -29 -49
-32 -67 -3 -18 -12 -38 -20 -45 -8 -6 -14 -21 -14 -32 0 -11 -19 -43 -42 -70
-38 -45 -88 -162 -88 -205 0 -38 -79 -151 -107 -152 -6 0 -21 -12 -33 -27 -20
-25 -22 -36 -17 -102 7 -87 19 -104 79 -105 37 -1 43 2 46 21 2 13 -4 33 -12
45 -21 30 -20 50 5 93 12 19 19 42 16 49 -3 8 0 20 8 26 8 6 17 25 20 41 4 16
11 31 16 35 6 3 25 36 43 72 18 37 56 110 84 162 78 143 180 354 188 384 3 15
14 31 24 36 10 5 21 22 25 37 3 16 13 42 20 58 33 75 14 122 -21 53z"/>
<path d="M5246 7131 c-10 -11 -20 -37 -23 -59 l-5 -39 31 5 c25 3 30 8 26 22
-10 32 15 33 54 2 21 -17 62 -37 91 -46 29 -9 61 -23 71 -32 22 -20 49 -12 49
14 0 24 -23 44 -47 41 -10 -2 -32 5 -50 14 -18 9 -42 17 -53 17 -12 0 -34 12
-50 28 -25 24 -64 52 -73 52 -2 0 -12 -9 -21 -19z"/>
<path d="M3943 6845 c-17 -7 -33 -12 -35 -11 -1 2 -19 6 -39 9 -31 5 -38 2
-47 -18 -7 -16 -22 -25 -49 -29 -74 -12 -148 -11 -174 1 -22 10 -29 10 -39 -2
-7 -8 -21 -15 -32 -15 -10 0 -33 -8 -51 -17 -21 -11 -59 -18 -107 -19 -203 -5
-228 -9 -248 -34 l-19 -23 -23 16 -23 16 -39 -44 c-22 -25 -44 -45 -50 -45 -6
0 -40 -26 -77 -59 -36 -32 -77 -64 -91 -71 -14 -7 -44 -29 -67 -48 -34 -29
-44 -44 -49 -79 -4 -26 -13 -47 -24 -53 -25 -14 -119 -205 -135 -275 -34 -154
-40 -167 -114 -244 -39 -41 -71 -78 -71 -82 0 -4 -14 -30 -31 -58 -21 -34 -36
-76 -45 -127 -11 -64 -19 -83 -56 -126 -23 -28 -44 -60 -45 -71 -5 -32 -63
-128 -82 -134 -30 -11 -49 -34 -44 -54 4 -13 -6 -29 -30 -52 -20 -18 -49 -61
-66 -97 -17 -36 -49 -90 -71 -120 -22 -30 -40 -65 -40 -78 0 -13 -7 -36 -14
-51 -8 -15 -13 -37 -10 -48 6 -21 -36 -91 -62 -106 -8 -4 -14 -14 -14 -21 0
-16 -52 -66 -69 -66 -7 0 -9 -4 -6 -10 11 -18 -15 -52 -37 -47 -16 5 -19 2
-14 -16 3 -11 -1 -35 -8 -51 -50 -121 -83 -303 -72 -394 4 -26 8 -96 11 -157
3 -88 1 -112 -11 -126 -13 -15 -12 -21 11 -64 14 -26 25 -57 25 -68 0 -31 92
-117 124 -117 40 0 86 -49 86 -92 0 -37 8 -66 40 -148 12 -31 24 -90 27 -136
7 -104 -5 -129 -83 -169 -66 -34 -154 -113 -154 -137 0 -9 16 -30 36 -46 22
-18 32 -32 25 -36 -6 -4 -16 -4 -22 -1 -5 4 -18 0 -28 -9 -16 -15 -19 -15 -31
-1 -17 20 -40 19 -40 -2 -1 -17 -32 -110 -61 -181 -11 -26 -11 -36 -1 -50 22
-31 24 -42 11 -58 l-13 -16 -18 22 -18 22 3 -30 c5 -40 24 -62 54 -62 33 0 64
38 50 61 -18 28 -1 49 39 49 l36 0 -6 34 c-9 45 8 54 45 27 l30 -22 -7 28 c-3
15 -13 38 -21 51 -15 24 -10 42 11 42 8 0 19 14 26 30 17 40 24 44 58 26 16
-8 32 -12 35 -9 16 16 18 -32 3 -58 -10 -16 -16 -42 -15 -57 4 -38 -8 -55 -31
-42 -22 12 -34 -1 -26 -28 5 -15 54 -52 69 -52 3 0 7 9 10 20 8 30 36 24 51
-11 8 -19 16 -27 20 -20 4 6 17 11 30 11 29 0 62 36 69 76 4 23 0 40 -19 68
-14 21 -23 43 -20 51 9 25 -21 39 -55 25 -39 -16 -54 -4 -40 33 11 30 21 33
39 15 9 -9 13 -7 18 6 4 9 4 20 0 23 -3 4 5 18 18 32 13 14 26 37 28 51 1 14
6 23 10 20 10 -8 58 41 78 80 10 19 28 44 40 55 18 16 20 26 15 66 -6 41 -4
47 17 61 13 9 34 38 47 66 l24 51 -21 39 c-11 22 -18 43 -15 46 3 3 0 12 -6
20 -8 10 -11 34 -8 68 5 53 0 69 -65 202 -13 25 -18 48 -28 136 -26 211 -35
250 -80 331 -16 30 -30 63 -30 73 0 11 -7 27 -16 37 -10 11 -17 40 -19 83 -2
53 1 68 16 82 11 10 19 23 19 30 0 7 11 30 25 50 14 20 25 51 25 69 0 41 22
95 49 119 11 10 18 23 15 27 -3 5 3 21 14 37 10 15 22 34 26 42 4 8 13 26 21
40 8 14 15 39 15 56 0 39 35 120 54 127 8 3 18 25 23 49 8 38 12 44 45 53 52
14 60 25 47 60 -10 27 -6 40 35 125 25 52 46 100 46 106 0 6 7 17 16 24 8 7
14 23 12 34 -3 27 66 152 92 166 11 6 20 17 20 25 0 8 13 29 28 47 16 18 40
54 55 80 16 28 50 63 86 90 41 29 60 50 60 65 1 12 6 25 11 28 6 3 10 24 10
46 0 26 5 42 15 45 11 5 13 20 9 75 l-5 69 36 64 c23 41 35 75 33 93 -3 24 2
29 32 39 19 6 36 19 38 27 4 22 96 77 128 77 16 0 34 10 46 25 11 14 25 24 32
22 9 -4 41 10 128 54 10 5 25 9 33 9 9 0 37 11 63 24 l47 24 135 -4 c74 -2
148 -4 164 -4 16 0 39 8 50 19 18 17 29 19 81 12 33 -4 70 -13 83 -20 18 -10
26 -9 44 4 26 18 69 20 86 3 8 -8 15 -8 26 1 21 18 185 18 214 0 17 -11 24
-11 34 -1 18 18 63 14 89 -8 l24 -20 -22 -6 c-27 -8 -31 -24 -5 -24 9 0 22 10
27 23 7 16 18 22 42 22 17 0 35 3 39 8 11 10 52 9 59 -3 3 -5 24 -10 45 -10
21 0 42 -4 45 -10 3 -5 63 -9 138 -9 73 0 157 -5 187 -12 30 -6 76 -13 101
-15 l45 -4 49 65 c27 36 54 65 60 65 5 0 16 13 23 29 16 37 -1 71 -36 71 -36
0 -97 36 -110 65 -16 34 -55 32 -60 -3 -5 -32 -29 -38 -60 -15 -15 11 -43 23
-62 26 -19 3 -55 11 -79 19 l-43 13 -22 -26 -21 -26 -25 13 c-14 8 -39 14 -57
14 -17 0 -35 5 -38 10 -8 13 -62 13 -70 0 -11 -19 -174 -2 -216 22 -33 18 -40
19 -55 7 -20 -17 -79 -12 -111 8 -19 12 -29 13 -46 5 -41 -20 -103 -24 -134
-9 -24 13 -33 13 -60 2z"/>
<path d="M5535 6580 c-3 -5 -15 -10 -25 -10 -10 0 -29 -15 -41 -32 -13 -18
-35 -45 -49 -59 -14 -14 -31 -38 -39 -52 -13 -24 -12 -29 4 -47 10 -11 21 -17
26 -14 13 8 56 -25 62 -47 3 -12 10 -18 17 -14 6 4 31 -9 55 -29 26 -22 54
-36 70 -36 15 0 40 -10 55 -22 54 -43 85 -63 133 -85 26 -12 47 -27 47 -33 0
-5 37 -28 83 -49 45 -21 90 -48 101 -60 10 -11 23 -18 27 -15 5 3 21 -1 36 -9
16 -8 48 -25 73 -37 58 -29 98 -67 115 -107 7 -17 57 -75 110 -128 53 -53 95
-99 91 -102 -3 -3 1 -18 9 -34 16 -29 46 -44 82 -40 21 2 49 -30 37 -42 -3 -3
8 -32 25 -66 17 -33 31 -69 31 -78 0 -10 18 -40 40 -67 22 -26 40 -52 40 -57
0 -4 10 -18 22 -29 12 -11 23 -33 24 -48 0 -20 7 -28 23 -30 30 -5 36 -26 22
-70 -9 -27 -9 -50 -2 -82 35 -154 42 -200 37 -242 -3 -26 -1 -50 5 -53 12 -8
12 -150 -2 -236 -8 -52 -8 -73 1 -84 7 -9 8 -20 2 -32 -23 -44 -31 -71 -35
-120 -3 -35 -13 -66 -30 -90 l-25 -38 4 -226 c2 -124 6 -233 9 -242 11 -26 -2
-34 -46 -30 l-42 4 6 -45 c5 -36 2 -54 -13 -81 -20 -35 -12 -57 10 -30 16 19
30 10 30 -19 0 -25 -38 -66 -62 -66 -15 0 -28 -19 -28 -40 0 -5 17 -10 38 -12
25 -2 36 -7 34 -17 -3 -16 17 -43 28 -36 5 3 6 13 3 23 -2 10 3 24 11 31 9 8
16 28 16 45 0 23 9 41 30 61 26 25 29 34 24 64 -4 20 -11 44 -16 54 -6 12 -5
19 5 23 11 4 18 43 27 147 7 84 18 151 26 164 8 12 23 53 35 90 12 37 36 102
54 143 18 41 36 91 40 110 4 19 11 40 16 46 4 5 8 41 7 80 -1 38 2 83 6 101 4
19 3 40 -4 54 -10 17 -9 29 3 58 9 20 18 59 21 86 3 28 10 73 15 100 7 38 6
54 -4 65 -11 12 -11 19 0 40 18 32 19 81 1 105 -7 10 -11 27 -8 37 2 10 -10
39 -27 67 -27 42 -32 59 -35 132 -3 46 -9 111 -15 144 -5 33 -14 84 -19 113
-5 29 -18 66 -31 82 -12 17 -19 35 -15 41 3 6 -6 23 -21 39 -18 18 -25 35 -21
45 4 11 -4 26 -22 43 -16 15 -31 38 -34 52 -15 61 -60 174 -75 185 -10 8 -12
14 -5 19 19 12 -2 61 -29 65 -13 1 -40 17 -60 35 -20 17 -54 42 -74 56 -21 14
-49 37 -64 51 -36 36 -172 139 -184 139 -5 0 -26 15 -47 33 -20 17 -71 61
-113 96 -43 35 -77 69 -77 75 0 22 -59 48 -91 41 -20 -5 -38 -1 -55 10 -15 9
-35 14 -47 11 -12 -3 -26 -1 -31 3 -6 5 -35 16 -64 26 l-53 17 -19 -17 c-22
-20 -75 -13 -89 13 -8 14 -12 15 -34 3 -29 -16 -57 -9 -57 14 0 17 -16 20 -25
5z"/>
<path d="M1486 6071 c-22 -16 -55 -34 -75 -41 -42 -15 -71 -38 -71 -57 0 -20
29 -16 85 12 28 13 56 25 64 25 14 0 71 57 71 71 0 6 -28 21 -33 18 -1 0 -20
-13 -41 -28z"/>
<path d="M1385 5900 c-5 -30 -18 -53 -39 -72 -33 -30 -37 -68 -11 -98 9 -11
10 -29 3 -70 -20 -125 -23 -189 -13 -262 9 -55 17 -54 45 7 17 38 20 58 15
143 l-6 99 31 67 c16 37 30 74 30 81 0 7 9 24 20 38 37 47 20 77 -21 36 -26
-26 -37 -16 -41 36 l-4 40 -9 -45z"/>
<path d="M4771 5795 c-17 -25 -31 -50 -31 -54 0 -14 92 0 131 20 20 10 46 15
58 12 14 -4 21 -1 21 9 0 26 -34 45 -91 52 l-57 7 -31 -46z"/>
<path d="M4990 5803 c0 -55 12 -70 47 -57 37 12 39 34 9 67 -36 39 -56 35 -56
-10z"/>
<path d="M5127 5783 c-25 -28 -21 -49 12 -63 41 -16 64 -10 75 23 12 32 3 44
-40 53 -22 4 -34 1 -47 -13z"/>
<path d="M4047 5653 c-12 -11 -7 -47 8 -67 8 -11 15 -30 15 -41 0 -27 29 -55
57 -55 20 0 53 -13 123 -50 l35 -18 37 27 c21 14 38 29 38 33 0 3 -15 16 -34
27 -34 21 -91 81 -111 115 -8 13 -26 19 -68 21 -32 2 -66 6 -76 10 -9 3 -20 2
-24 -2z"/>
<path d="M3550 5593 c-8 -3 -19 -12 -23 -19 -4 -8 -13 -14 -19 -14 -6 0 -20
-8 -30 -17 -16 -14 -23 -15 -38 -5 -11 7 -28 12 -38 12 -11 0 -33 7 -50 16
-66 33 -97 30 -182 -16 -19 -11 -45 -19 -57 -20 -12 0 -36 -17 -55 -38 -18
-21 -70 -60 -115 -86 -96 -55 -185 -149 -226 -238 -15 -31 -32 -60 -37 -63 -6
-3 -10 -16 -10 -29 0 -13 -9 -31 -20 -41 -11 -10 -20 -22 -20 -26 0 -12 -74
-124 -119 -180 -16 -20 -21 -36 -17 -52 6 -22 96 -97 116 -97 5 0 16 -13 25
-30 9 -16 19 -30 24 -30 14 0 71 -100 71 -124 0 -13 13 -38 28 -57 54 -65 127
-139 138 -139 6 0 19 9 30 21 38 42 81 52 209 50 88 -3 132 -8 167 -22 50 -20
100 -17 128 7 8 7 27 17 42 23 19 7 28 18 30 38 2 22 9 29 31 31 23 3 27 8 27
33 0 38 16 69 35 69 8 0 15 7 15 16 0 26 67 137 104 173 20 19 36 40 36 47 0
6 18 32 40 57 l40 45 0 55 c0 65 34 208 53 222 7 5 21 22 31 36 l17 27 -31 22
c-18 13 -30 30 -30 44 0 48 -47 113 -74 103 -18 -7 -56 20 -56 39 0 8 18 27
40 42 45 31 48 42 20 67 -14 13 -28 16 -55 11 -27 -5 -45 -2 -69 12 -36 21
-102 34 -126 25z m-70 -318 c0 -41 -21 -39 -61 6 l-38 44 22 18 21 19 28 -31
c16 -17 28 -42 28 -56z m-595 -312 c0 -11 6 -27 14 -36 27 -33 -16 -74 -46
-44 -19 18 -20 72 -2 93 16 19 34 12 34 -13z m318 -237 c15 -21 18 -33 10 -45
-15 -24 -47 -20 -51 7 -2 12 -10 22 -17 22 -18 0 -28 17 -21 35 9 25 56 13 79
-19z"/>
<path d="M4507 5392 c-10 -10 -17 -30 -17 -43 0 -27 -30 -91 -55 -119 -20 -22
-79 -120 -105 -174 -18 -37 -29 -55 -87 -136 -9 -13 -18 -47 -20 -76 -3 -46 0
-53 23 -68 l25 -17 45 21 c24 12 44 25 44 30 0 14 189 174 218 185 15 6 46 20
69 33 23 12 48 22 55 22 7 1 51 36 97 79 l84 77 2 39 c2 59 -26 79 -109 82
-49 2 -75 8 -96 23 -15 11 -33 20 -39 20 -6 0 -26 9 -46 20 -44 25 -67 25 -88
2z"/>
<path d="M5229 5047 c-27 -15 -54 -37 -60 -50 -7 -12 -27 -39 -45 -60 -19 -20
-34 -41 -34 -45 0 -5 -24 -28 -52 -51 -29 -23 -89 -77 -133 -119 -44 -43 -96
-91 -115 -108 -19 -16 -44 -47 -54 -68 -11 -20 -28 -42 -38 -47 -10 -5 -18
-15 -18 -22 0 -7 -29 -42 -65 -77 -36 -35 -65 -70 -65 -76 0 -7 -19 -30 -43
-51 -23 -21 -57 -61 -76 -90 -18 -29 -41 -55 -51 -58 -11 -3 -22 -16 -26 -28
-4 -12 -17 -36 -30 -53 -13 -17 -24 -38 -24 -47 0 -9 -4 -19 -10 -22 -21 -13
-8 -42 45 -100 30 -33 55 -69 55 -80 0 -11 9 -38 19 -60 35 -73 70 -199 76
-277 l7 -78 28 0 c15 0 33 -7 40 -14 6 -8 35 -20 64 -26 41 -8 62 -20 92 -51
l39 -41 95 7 c52 4 108 14 124 22 18 9 49 14 86 11 64 -3 72 0 74 34 1 20 6
23 46 24 25 0 66 10 92 22 51 24 74 27 83 12 12 -19 25 -10 19 14 -4 18 -1 27
14 35 11 6 22 24 25 41 7 30 24 43 80 54 24 6 27 11 27 46 0 33 4 42 24 51 21
10 24 17 19 45 -4 25 -1 35 10 40 10 3 19 24 23 50 6 40 25 75 89 163 14 19
30 52 36 75 7 25 25 54 46 73 30 28 34 36 28 63 -5 21 -2 37 7 48 18 22 9 312
-11 335 -8 11 -10 30 -5 62 11 76 10 276 -2 285 -5 5 -19 7 -31 4 -30 -8 -63
12 -60 37 1 12 -5 25 -13 29 -39 21 -90 40 -108 40 -11 0 -25 7 -33 16 -15 19
-83 54 -103 54 -8 0 -19 6 -23 14 -5 9 -31 15 -72 18 -55 3 -71 -1 -112 -25z
m-168 -1040 c10 -30 10 -40 0 -50 -10 -9 -16 -7 -30 9 -10 12 -26 23 -36 25
-19 4 -39 54 -30 76 2 7 11 10 20 7 9 -4 15 -3 14 2 -8 46 42 -10 62 -69z
m-529 -110 c10 -3 20 -1 24 4 10 16 28 -7 20 -26 -3 -9 -14 -15 -23 -13 -13 2
-18 -4 -18 -22 0 -17 -5 -24 -15 -22 -26 6 -41 24 -35 43 4 10 2 27 -4 37 -13
25 -2 36 18 19 9 -8 24 -17 33 -20z m485 -13 c3 -8 0 -20 -6 -28 -7 -8 -10
-20 -9 -27 2 -8 -3 -12 -12 -10 -8 2 -22 4 -30 5 -15 3 -26 56 -16 82 4 10 12
11 36 2 18 -6 34 -17 37 -24z m-335 -35 c15 -8 18 -17 14 -35 -7 -28 0 -30 26
-7 l19 17 28 -35 c34 -40 25 -61 -14 -35 -24 16 -28 16 -44 2 -11 -10 -21 -12
-31 -6 -15 9 -52 -5 -47 -18 1 -4 -2 -9 -8 -12 -5 -3 -10 2 -11 10 -2 36 -5
41 -16 38 -7 -3 -15 -15 -18 -28 -7 -31 -26 -36 -39 -11 -9 16 -6 25 17 51 17
18 35 28 43 25 10 -4 18 5 26 25 12 32 23 36 55 19z m362 -279 c0 -32 -4 -44
-13 -42 -8 2 -22 -5 -32 -14 -19 -17 -39 -12 -39 10 0 7 9 21 20 31 11 10 20
26 20 35 0 22 10 31 29 28 11 -2 15 -16 15 -48z"/>
<path d="M3197 3550 c-14 -11 -30 -20 -35 -20 -5 0 -15 -7 -22 -15 -18 -22
-69 -45 -99 -45 -15 0 -37 -7 -49 -16 l-23 -16 -6 21 c-3 12 -9 21 -14 21 -9
0 -33 -39 -34 -55 0 -5 -17 -9 -38 -9 l-37 1 0 -29 c0 -20 -13 -45 -40 -77
-22 -26 -40 -51 -40 -55 0 -14 -81 -116 -111 -138 -24 -18 -29 -27 -24 -50 5
-19 2 -30 -7 -33 -9 -4 -12 -18 -10 -43 3 -29 -3 -46 -27 -79 -19 -26 -39 -43
-51 -43 -16 0 -20 -7 -20 -36 l0 -36 38 7 c20 3 41 11 47 16 19 19 60 8 95
-25 28 -26 46 -35 88 -39 l52 -6 19 37 c24 46 71 82 109 82 29 0 63 34 82 84
5 14 19 26 32 28 18 2 23 9 23 33 0 22 6 33 23 40 12 5 22 19 22 30 0 23 122
135 148 135 12 0 13 3 4 12 -9 9 -8 16 5 30 9 10 21 18 28 18 6 0 19 16 28 35
l17 36 -20 62 c-11 34 -22 74 -25 89 -5 27 -58 68 -87 68 -9 0 -27 -9 -41 -20z"/>
<path d="M6557 3343 c-4 -3 -7 -14 -7 -23 0 -10 -9 -37 -20 -62 -10 -24 -22
-79 -26 -121 l-6 -77 32 0 c27 0 30 3 25 21 -10 30 30 69 70 69 45 0 49 10 19
41 -23 24 -26 34 -22 73 5 37 2 48 -16 65 -23 22 -38 26 -49 14z"/>
<path d="M3568 3282 c-19 -2 -29 -11 -37 -33 -6 -17 -15 -28 -20 -25 -5 4 -4
-7 1 -22 13 -34 6 -59 -19 -70 -10 -4 -18 -17 -18 -32 0 -14 -8 -29 -20 -35
-14 -7 -19 -18 -17 -35 2 -15 -7 -41 -22 -62 -13 -20 -27 -45 -30 -55 -9 -28
-111 -182 -142 -214 l-26 -27 34 -17 c18 -9 42 -19 53 -21 11 -2 37 -8 58 -13
22 -5 52 -6 70 -1 18 5 59 8 92 7 107 -3 164 53 165 160 0 38 5 55 17 62 14 8
15 13 5 35 -8 18 -8 41 -1 83 5 32 9 85 8 118 -1 41 2 59 10 58 17 -4 13 12
-9 32 -15 13 -19 26 -15 44 4 20 0 29 -17 40 -27 17 -82 27 -120 23z"/>
<path d="M6352 3004 c-22 -15 -31 -64 -12 -64 19 0 90 52 90 66 0 19 -50 18
-78 -2z"/>
<path d="M6156 2926 c-18 -44 -54 -65 -71 -42 -15 20 -31 21 -39 0 -5 -12 -15
-15 -38 -12 -25 4 -41 -2 -76 -28 -24 -19 -51 -34 -59 -34 -9 0 -32 -10 -51
-22 -20 -12 -59 -30 -86 -39 -44 -14 -51 -20 -53 -44 -3 -37 -18 -52 -37 -36
-12 10 -17 9 -25 -8 -8 -14 -26 -21 -66 -26 -96 -12 -219 -12 -245 1 -33 16
-115 8 -159 -15 -44 -24 -79 -32 -86 -21 -6 10 -64 40 -77 40 -4 0 -8 -8 -8
-18 0 -11 -9 -27 -20 -37 -19 -17 -43 -17 -111 0 -22 6 -27 3 -32 -15 -4 -17
-10 -21 -24 -15 -10 4 -36 11 -58 16 -22 4 -53 11 -68 15 -20 5 -33 1 -47 -11
-13 -12 -40 -19 -76 -21 -31 -2 -61 -8 -68 -13 -6 -5 -58 -25 -116 -44 -124
-41 -195 -71 -204 -85 -3 -6 -28 -18 -54 -27 -131 -48 -152 -65 -152 -127 0
-18 -7 -54 -15 -80 -16 -53 -12 -56 42 -33 20 9 50 15 67 14 17 0 49 5 71 11
22 6 78 13 125 14 47 2 98 9 113 15 16 6 52 11 81 11 36 0 58 5 66 15 7 9 19
14 25 11 7 -2 17 0 23 6 7 7 20 4 42 -12 l31 -22 13 18 c11 14 25 17 59 15 27
-1 58 4 76 14 18 9 36 13 42 9 10 -6 106 14 202 42 48 15 131 33 177 39 86 12
154 18 219 21 43 1 77 7 81 14 13 21 113 71 228 115 40 15 85 37 100 49 41 33
80 56 95 56 7 0 20 12 28 27 8 14 30 33 49 41 19 8 46 23 60 34 14 11 39 26
55 33 30 12 205 170 205 185 0 4 -18 7 -40 7 -23 0 -48 7 -58 17 -27 24 -40
20 -56 -18z"/>
<path d="M2600 2508 c0 -9 -15 -27 -33 -41 -41 -31 -45 -66 -12 -97 39 -37 32
-62 -31 -116 -48 -41 -85 -95 -89 -129 0 -5 -7 -21 -15 -35 -7 -14 -17 -43
-21 -64 -6 -32 -3 -45 13 -67 23 -31 20 -87 -8 -141 l-16 -30 21 -15 c12 -8
21 -24 21 -35 0 -34 69 -164 94 -178 35 -18 60 -9 64 22 2 15 14 34 28 42 20
14 24 25 24 64 0 91 15 121 102 205 45 42 86 77 92 77 15 0 39 67 39 110 1 82
-22 130 -102 215 -10 11 -22 29 -25 41 -4 12 -18 26 -32 33 -19 8 -24 16 -19
31 5 15 -6 33 -44 72 -31 32 -51 46 -51 36z"/>
<path d="M2440 2460 c-9 -17 -14 -18 -31 -9 -15 8 -24 8 -32 0 -15 -15 -50
-14 -65 1 -9 9 -18 6 -40 -15 l-29 -28 -44 10 c-66 16 -82 13 -103 -16 -16
-21 -17 -29 -7 -45 15 -24 5 -43 -15 -27 -24 19 -32 -1 -38 -96 -2 -22 -13
-62 -25 -89 -12 -28 -20 -64 -19 -85 3 -32 0 -36 -20 -36 -13 0 -28 -10 -35
-21 -7 -12 -21 -37 -31 -55 -10 -19 -36 -60 -57 -92 -50 -75 -56 -98 -30 -121
17 -15 20 -27 15 -56 l-6 -37 37 -22 c21 -12 44 -20 51 -17 21 8 17 54 -6 66
-16 9 -18 15 -10 30 14 26 37 15 59 -28 l18 -36 8 23 c3 12 18 26 31 31 l25
10 -17 25 c-9 14 -22 25 -28 25 -18 0 -69 81 -58 92 12 12 62 -8 62 -25 0 -7
11 -24 25 -37 l24 -23 12 29 c35 85 50 120 59 134 20 32 60 118 61 131 0 8 8
25 17 39 9 14 26 41 37 59 66 108 99 153 132 178 21 15 45 37 53 48 8 11 27
32 43 48 17 16 27 33 23 42 -8 21 -33 19 -46 -5z"/>
<path d="M1498 2293 c-10 -3 -18 -11 -18 -19 0 -8 -14 -28 -32 -44 -23 -21
-29 -33 -22 -40 14 -14 5 -60 -12 -67 -17 -6 -18 -42 -3 -80 6 -15 13 -62 16
-103 2 -41 6 -81 9 -88 5 -17 29 -10 29 9 0 8 8 13 21 11 15 -2 20 3 19 20 -1
13 -5 31 -10 41 -9 20 20 83 46 100 13 8 14 19 8 60 -5 27 -15 57 -24 67 -19
21 -19 44 0 60 13 11 18 7 32 -29 19 -49 36 -49 41 1 3 32 0 37 -20 40 -13 2
-24 9 -24 16 -1 6 -2 16 -3 22 -2 14 -33 27 -53 23z"/>
<path d="M1707 2238 c-8 -18 -26 -39 -40 -47 -15 -8 -27 -21 -27 -30 0 -9 -3
-27 -7 -40 -5 -19 -2 -22 13 -19 10 2 23 12 29 23 21 42 58 83 70 79 14 -6 30
41 20 56 -13 22 -45 9 -58 -22z"/>
<path d="M1055 1978 c-2 -13 -6 -43 -7 -68 -2 -35 1 -45 14 -48 17 -3 27 22
44 106 l7 32 -27 0 c-18 0 -27 -6 -31 -22z"/>
<path d="M3034 1926 c-11 -9 -15 -21 -11 -35 3 -15 -3 -35 -19 -58 -13 -20
-24 -42 -24 -50 0 -8 -9 -28 -21 -44 -11 -16 -18 -33 -15 -38 3 -4 -1 -26 -9
-47 -7 -22 -24 -73 -36 -114 -12 -41 -26 -81 -32 -88 -6 -7 -9 -39 -8 -71 2
-46 -2 -60 -19 -76 -23 -21 -27 -40 -5 -32 25 10 25 -9 0 -33 -27 -25 -26 -50
3 -82 24 -28 46 -22 88 23 22 22 60 62 86 87 49 49 82 95 110 152 50 105 76
169 82 205 9 47 22 66 41 59 28 -11 39 135 13 187 -10 21 -18 43 -18 49 0 6
-17 10 -37 10 -21 0 -64 2 -95 4 -36 3 -63 0 -74 -8z"/>
<path d="M4157 1871 c-15 -10 -34 -27 -42 -37 -7 -10 -19 -19 -27 -19 -7 -1
-12 -7 -10 -14 1 -7 -2 -19 -8 -26 -22 -26 -29 -73 -14 -92 7 -10 14 -28 14
-40 0 -28 15 -29 58 -3 18 11 48 20 67 20 36 0 46 15 24 37 -15 15 -3 34 16
26 22 -8 18 16 -6 36 -25 20 -49 84 -42 111 6 24 6 24 -30 1z"/>
<path d="M4885 1859 c-47 -11 -55 -21 -55 -76 0 -48 19 -58 35 -20 6 12 19 22
30 22 11 0 26 4 33 8 13 9 17 78 5 76 -5 -1 -26 -5 -48 -10z"/>
<path d="M3655 1761 c-27 -4 -68 -16 -90 -28 -22 -11 -57 -29 -77 -39 -39 -20
-48 -43 -23 -64 13 -11 12 -15 -5 -37 -11 -14 -20 -33 -20 -43 0 -23 -38 -70
-56 -70 -11 0 -14 -8 -10 -30 3 -21 -3 -41 -22 -67 -20 -29 -26 -50 -27 -93
l0 -54 -42 3 -43 3 0 -51 c0 -52 -10 -78 -43 -117 -13 -16 -17 -34 -15 -65 5
-66 31 -64 148 13 52 35 99 69 103 75 4 7 21 20 37 28 31 16 161 125 197 165
12 14 32 45 43 68 12 24 39 62 61 85 l41 42 -7 60 c-4 33 -7 72 -7 87 1 15 -3
30 -8 33 -6 4 -10 26 -10 50 0 58 -9 61 -125 46z"/>
<path d="M4078 1559 c-35 -20 -2 -149 39 -149 16 0 15 -3 3 40 -9 30 -7 37 11
50 l20 16 -21 27 c-24 30 -27 31 -52 16z"/>
<path d="M2160 1375 c0 -12 -10 -30 -21 -41 -27 -24 -41 -61 -34 -85 6 -16 15
-19 62 -16 77 5 93 27 78 105 l-12 57 -36 1 c-32 1 -37 -2 -37 -21z"/>
<path d="M4368 991 c-79 -81 -88 -109 -30 -103 20 2 43 9 50 15 8 6 34 12 58
13 24 2 53 8 64 14 23 12 17 32 -8 29 -10 -1 -24 1 -33 5 -8 4 -28 0 -44 -8
-56 -29 -55 10 1 45 33 20 47 59 22 59 -7 0 -43 -31 -80 -69z"/>
</g>
</svg>
