<?xml version="1.0" standalone="no"?>
<!DOCTYPE svg PUBLIC "-//W3C//DTD SVG 20010904//EN"
 "http://www.w3.org/TR/2001/REC-SVG-20010904/DTD/svg10.dtd">
<svg version="1.0" xmlns="http://www.w3.org/2000/svg"
 width="660.000000pt" height="495.000000pt" viewBox="0 0 660.000000 495.000000"
 preserveAspectRatio="xMidYMid meet">
<metadata>
Created by potrace 1.16, written by Peter Selinger 2001-2019
</metadata>
<g transform="translate(0.000000,495.000000) scale(0.100000,-0.100000)"
fill="currentColor" stroke="none">
<path d="M3818 3781 c-38 -19 -82 -64 -108 -111 -19 -34 -91 -126 -152 -196
-26 -29 -73 -93 -106 -142 -65 -96 -227 -291 -264 -316 -13 -9 -39 -30 -58
-47 -19 -16 -74 -61 -121 -99 -94 -75 -105 -95 -93 -174 19 -122 98 -161 195
-96 25 16 52 44 61 62 8 18 35 56 60 83 24 28 52 64 63 80 10 17 35 50 56 75
20 25 45 61 54 80 10 19 31 49 47 65 16 17 37 44 45 60 9 17 25 39 37 51 43
43 126 143 126 153 0 13 140 181 150 181 5 0 24 21 44 48 19 26 47 62 62 80
16 19 30 52 35 80 6 42 4 50 -19 75 -30 32 -63 35 -114 8z"/>
<path d="M2585 3768 c-17 -4 -38 -5 -48 -2 -24 8 -80 -54 -97 -107 -11 -33
-11 -52 -1 -102 7 -34 19 -73 27 -88 12 -24 20 -94 38 -309 2 -30 0 -149 -5
-265 -11 -223 -6 -273 31 -325 23 -33 129 -75 163 -65 29 9 94 72 114 110 19
36 18 136 -1 174 -16 31 -28 97 -31 171 -1 30 -6 92 -10 138 -6 62 -5 89 5
108 12 21 11 30 -4 62 -18 37 -33 183 -29 282 4 95 2 112 -16 148 -33 65 -75
87 -136 70z"/>
<path d="M1195 3316 c-67 -15 -70 -17 -106 -90 l-32 -64 17 -32 c9 -18 16 -39
16 -46 0 -26 61 -57 119 -61 38 -3 67 -12 92 -28 19 -14 40 -25 45 -25 5 0 21
-13 34 -30 14 -16 30 -29 37 -30 7 0 49 -28 94 -62 45 -35 97 -74 115 -88 71
-54 220 -178 233 -193 7 -9 22 -17 33 -17 29 0 78 -54 78 -85 0 -28 26 -75 42
-75 5 0 28 -16 51 -35 22 -19 46 -35 52 -35 7 0 20 -9 30 -20 l18 -19 -25 -10
c-13 -5 -37 -20 -54 -34 -31 -26 -108 -45 -118 -29 -4 7 -16 5 -34 -3 -18 -9
-84 -15 -192 -19 -91 -3 -179 -9 -197 -15 -17 -5 -34 -7 -36 -4 -3 2 -14 0
-24 -5 -10 -5 -38 -12 -63 -16 -25 -3 -65 -11 -90 -17 -62 -14 -178 -18 -222
-7 -29 7 -45 5 -69 -7 -33 -18 -53 -10 -64 26 -4 10 -15 19 -27 19 -17 0 -19
-4 -14 -26 5 -18 2 -32 -10 -45 -25 -27 -30 -101 -10 -153 14 -36 23 -45 55
-54 55 -17 85 -15 114 8 14 11 38 20 54 20 16 0 34 5 40 11 20 20 144 46 253
54 36 2 85 7 110 10 48 7 126 7 160 0 11 -2 47 1 80 7 38 6 65 7 73 1 6 -5 57
-8 112 -6 55 2 116 3 135 3 79 -3 97 -2 145 10 70 16 100 60 99 140 -1 32 -4
69 -8 84 -7 28 -1 35 86 113 9 9 23 40 29 71 11 47 11 58 -4 81 -9 14 -25 42
-36 62 -21 39 -55 65 -93 73 -70 15 -117 32 -148 53 -19 12 -38 23 -42 23 -9
0 -115 80 -199 150 -34 28 -71 55 -83 60 -33 13 -128 73 -156 98 -34 31 -139
112 -145 112 -12 0 -157 113 -168 131 -10 17 -119 82 -129 78 -2 -1 -25 -6
-53 -13z"/>
<path d="M4550 2573 c-8 -3 -29 -22 -46 -42 l-32 -36 -143 1 c-79 0 -199 3
-266 6 -95 4 -125 3 -133 -7 -6 -8 -26 -16 -43 -20 -35 -6 -165 -39 -242 -61
-46 -12 -143 -13 -164 0 -4 3 -21 0 -38 -6 -24 -9 -40 -7 -87 9 -63 22 -83 19
-156 -18 -59 -29 -85 -111 -56 -173 9 -19 16 -38 16 -43 0 -5 13 -22 29 -37
l29 -27 48 10 c27 5 71 15 98 21 33 8 55 9 70 2 16 -7 29 -6 48 4 16 8 68 15
132 17 65 2 111 8 118 15 7 7 21 12 33 12 12 0 26 5 32 11 8 8 20 9 40 2 18
-7 51 -7 93 -1 36 5 79 11 95 13 17 1 59 10 95 18 36 8 91 15 123 15 32 0 60
2 63 5 3 3 17 -1 31 -8 15 -8 30 -12 34 -9 4 2 30 8 57 14 50 9 75 5 150 -26
27 -12 41 -12 89 1 77 20 109 52 121 124 11 60 1 143 -20 168 -22 27 -69 44
-136 48 -37 2 -74 1 -82 -2z"/>
<path d="M2720 1963 c-21 -6 -61 -23 -90 -37 -28 -13 -60 -74 -67 -126 -3 -26
5 -56 31 -113 20 -43 36 -88 36 -100 0 -12 7 -44 15 -72 18 -58 47 -186 52
-230 9 -85 20 -142 31 -162 7 -12 12 -31 12 -41 0 -41 116 -132 168 -132 22 0
93 72 116 117 25 50 19 88 -28 193 -24 53 -47 116 -51 141 -3 24 -11 59 -16
76 -6 18 -12 76 -14 130 -2 54 -10 141 -18 193 l-14 94 -43 38 c-41 37 -76 46
-120 31z"/>
<path d="M3242 1947 c-25 -16 -39 -37 -53 -80 l-20 -58 17 -53 c9 -29 22 -59
28 -68 23 -32 102 -67 166 -74 63 -7 143 -35 155 -54 3 -6 17 -10 30 -10 13 0
37 -13 54 -29 17 -17 44 -31 69 -35 36 -5 156 -60 186 -85 6 -5 28 -11 50 -14
21 -3 43 -10 49 -16 6 -6 22 -11 35 -11 36 0 86 -35 108 -75 37 -70 144 -94
228 -53 51 24 76 65 84 133 9 88 -103 229 -207 259 -60 18 -65 16 -86 -25 -16
-30 -57 -41 -70 -18 -13 21 -129 69 -167 69 -43 0 -203 78 -282 138 -27 20
-64 46 -82 57 -38 23 -94 73 -109 97 -7 12 -31 18 -80 22 -61 5 -74 3 -103
-17z"/>
<path d="M2107 1783 c-3 -3 -25 -5 -47 -5 -23 1 -53 -3 -65 -8 -26 -10 -55
-57 -55 -88 0 -22 -106 -230 -158 -312 -68 -105 -272 -300 -314 -300 -5 0 -33
-16 -63 -36 -62 -42 -93 -87 -102 -150 -5 -37 -2 -50 22 -84 15 -22 30 -40 34
-41 3 0 33 -2 66 -5 l60 -4 58 56 c32 31 65 70 73 86 8 16 28 37 45 47 36 22
105 101 145 166 16 26 45 66 64 89 55 68 116 145 180 227 32 42 78 96 101 120
56 59 64 116 25 183 -26 44 -57 71 -69 59z"/>
<path d="M5985 764 c-9 -15 -11 -32 -6 -56 11 -46 18 -57 39 -57 9 0 26 -1 36
-3 28 -5 56 49 43 85 -18 55 -84 73 -112 31z"/>
<path d="M6570 399 c0 -11 5 -29 10 -40 9 -15 7 -21 -5 -25 -19 -8 -19 -38 0
-54 14 -11 14 -15 -2 -32 -10 -11 -18 -27 -18 -35 0 -9 -7 -19 -15 -23 -8 -4
-25 -12 -36 -18 -17 -8 -26 -7 -40 3 -24 18 -34 19 -34 1 0 -7 -7 -19 -15 -26
-11 -9 -13 -16 -6 -23 7 -7 15 -6 24 1 18 15 30 3 16 -15 -8 -9 -8 -17 0 -26
14 -18 2 -30 -16 -15 -9 7 -13 7 -11 1 2 -6 -9 -22 -24 -36 -15 -14 -24 -28
-21 -31 4 -3 55 -6 115 -6 l108 0 0 103 c0 67 -4 107 -12 115 -9 9 -9 15 0 24
7 7 12 44 12 95 0 67 -3 83 -15 83 -8 0 -15 -9 -15 -21z"/>
</g>
</svg>
