<?xml version="1.0" standalone="no"?>
<!DOCTYPE svg PUBLIC "-//W3C//DTD SVG 20010904//EN"
 "http://www.w3.org/TR/2001/REC-SVG-20010904/DTD/svg10.dtd">
<svg version="1.0" xmlns="http://www.w3.org/2000/svg"
 width="691.000000pt" height="541.000000pt" viewBox="0 0 691.000000 541.000000"
 preserveAspectRatio="xMidYMid meet">
<metadata>
Created by potrace 1.16, written by Peter Selinger 2001-2019
</metadata>
<g transform="translate(0.000000,541.000000) scale(0.100000,-0.100000)"
fill="#000000" stroke="none">
<path d="M3083 3948 c-6 -7 -14 -25 -18 -39 -4 -15 -20 -39 -36 -55 -16 -15
-29 -31 -29 -34 0 -10 50 -31 60 -25 13 8 24 -15 35 -75 11 -61 11 -471 0
-510 -4 -14 -10 -57 -12 -96 -4 -58 -2 -74 12 -88 l17 -17 19 17 c11 9 19 22
19 29 0 18 28 71 45 85 8 7 12 16 9 22 -3 5 0 15 6 23 6 8 9 19 5 24 -3 6 0
21 6 33 7 13 13 34 13 48 1 14 4 30 7 35 3 6 5 38 4 73 -1 34 2 65 7 68 5 3 6
15 2 27 -3 11 -8 34 -10 51 -5 52 -13 96 -19 106 -3 5 -1 11 3 14 11 6 8 49
-4 68 -5 7 -9 27 -10 43 -4 77 -18 146 -33 159 -24 21 -85 30 -98 14z"/>
<path d="M2152 3744 l-22 -15 14 -32 c8 -18 56 -75 107 -128 52 -52 133 -151
182 -220 142 -201 251 -348 260 -348 18 -2 58 37 46 44 -7 5 0 19 21 40 l32
33 -18 25 c-11 14 -27 28 -36 30 -10 3 -21 13 -24 24 -4 10 -16 26 -28 35 -12
9 -21 20 -22 25 -3 29 -26 63 -43 63 -23 0 -45 25 -36 40 4 7 -8 28 -27 48
-19 21 -41 51 -49 67 -19 41 -59 100 -59 89 -1 -5 -10 2 -20 15 -11 13 -20 20
-20 16 0 -17 -29 18 -32 38 -2 13 -10 22 -21 22 -9 0 -35 22 -56 49 -34 43
-43 48 -83 52 -29 2 -52 -2 -66 -12z"/>
<path d="M3973 3641 c-33 -25 -75 -65 -93 -89 -19 -24 -55 -56 -81 -71 -27
-15 -67 -51 -90 -79 -24 -29 -49 -52 -57 -52 -9 0 -13 -3 -9 -6 7 -7 -36 -79
-69 -114 -13 -14 -22 -34 -22 -45 1 -11 -7 -33 -18 -49 -19 -31 -27 -77 -17
-109 4 -14 11 -17 30 -12 31 7 72 36 73 51 0 5 16 25 35 44 19 19 35 39 35 45
0 15 181 209 249 268 31 26 76 60 100 77 75 51 111 88 111 117 0 14 -3 23 -7
20 -3 -4 -15 1 -25 10 -10 9 -34 22 -52 28 l-34 12 -59 -46z"/>
<path d="M2035 2839 c-128 -9 -177 -21 -225 -54 -31 -21 -38 -32 -36 -53 1
-15 -2 -33 -7 -39 -10 -14 15 -12 103 9 56 13 412 12 454 -1 107 -33 347 -48
392 -24 32 16 53 42 54 64 0 9 7 22 15 29 11 9 12 16 2 31 -11 17 -20 18 -89
13 -75 -7 -292 12 -313 26 -13 9 -217 8 -350 -1z"/>
<path d="M4325 2820 c-2 -3 -36 -7 -76 -8 -40 -2 -77 -6 -83 -10 -6 -3 -42 -7
-81 -9 -38 -1 -86 -5 -105 -8 -71 -12 -148 -16 -265 -15 -66 0 -129 -2 -141
-5 -12 -2 -33 -23 -47 -44 -32 -48 -25 -55 48 -57 105 -3 268 -13 273 -19 3
-2 11 0 18 6 8 7 14 7 19 -1 5 -8 11 -7 22 2 8 6 31 13 51 14 80 4 340 16 390
18 l54 2 33 44 c28 37 31 47 21 64 -6 12 -15 24 -21 28 -11 9 -105 7 -110 -2z"/>
<path d="M2810 2549 c-55 -43 -91 -75 -117 -104 -55 -59 -98 -95 -132 -114
-77 -40 -426 -406 -419 -438 0 -5 -2 -16 -7 -26 -5 -12 -1 -30 11 -52 l18 -34
100 91 c56 49 155 138 221 198 66 59 156 135 200 168 44 33 112 91 151 129 56
53 71 73 68 93 -1 14 -3 37 -3 53 -1 16 -7 27 -15 27 -7 0 -19 7 -26 15 -16
19 -20 19 -50 -6z"/>
<path d="M3120 2496 c-13 -15 -29 -25 -36 -22 -15 6 -58 -39 -50 -53 4 -5 11
-72 17 -148 6 -76 15 -142 20 -148 5 -5 9 -36 10 -70 0 -33 4 -69 8 -80 5 -11
4 -33 0 -50 -5 -17 -5 -33 1 -39 6 -6 6 -14 0 -21 -13 -16 -20 -78 -9 -91 5
-6 5 -33 0 -61 -5 -33 -4 -61 3 -79 l12 -27 17 17 c9 10 17 24 17 31 0 8 9 20
20 28 12 8 20 18 18 23 -1 5 6 22 17 38 11 17 20 49 21 80 1 28 5 59 9 69 4 9
5 26 2 38 -3 11 -2 33 3 48 5 19 3 38 -7 60 l-16 31 16 18 c13 14 14 25 6 62
-6 24 -15 50 -21 58 -9 10 -7 17 5 29 l16 16 -20 28 c-12 17 -15 30 -9 34 5 3
10 13 10 22 0 12 -3 13 -14 4 -10 -8 -16 -8 -25 3 -9 11 -9 16 -1 21 12 7 10
40 -7 118 l-8 39 -25 -26z"/>
<path d="M3529 2484 c-6 -8 -17 -14 -23 -14 -16 0 -38 -38 -26 -45 6 -4 8 -10
5 -15 -12 -20 262 -275 395 -367 25 -17 105 -78 179 -136 l134 -105 32 18 c18
10 44 30 58 44 14 14 30 26 35 26 5 0 12 9 15 21 4 14 -1 23 -16 29 -12 4 -48
35 -81 68 -34 35 -64 58 -72 55 -8 -3 -26 3 -42 13 -41 28 -72 44 -72 36 0 -3
-15 8 -32 25 -18 17 -48 39 -66 50 -19 10 -32 20 -30 23 1 3 -24 30 -57 59
-33 29 -97 88 -142 129 -68 63 -91 78 -133 88 -40 9 -52 9 -61 -2z"/>
</g>
</svg>
