<?xml version="1.0" standalone="no"?>
<!DOCTYPE svg PUBLIC "-//W3C//DTD SVG 20010904//EN"
 "http://www.w3.org/TR/2001/REC-SVG-20010904/DTD/svg10.dtd">
<svg version="1.0" xmlns="http://www.w3.org/2000/svg"
 width="424.000000pt" height="530.000000pt" viewBox="0 0 424.000000 530.000000"
 preserveAspectRatio="xMidYMid meet">
<metadata>
Created by potrace 1.16, written by Peter Selinger 2001-2019
</metadata>
<g transform="translate(0.000000,530.000000) scale(0.100000,-0.100000)"
fill="#000000" stroke="none">
<path d="M1530 4000 c-18 -13 -28 -16 -37 -8 -18 14 -45 -9 -38 -32 8 -24 16
-84 20 -150 2 -30 4 -55 5 -55 7 0 12 -66 16 -210 2 -93 7 -177 10 -185 3 -8
8 -96 10 -194 3 -98 10 -188 15 -198 7 -14 7 -23 -1 -33 -7 -8 -9 -18 -6 -23
4 -7 15 -181 21 -337 2 -65 6 -91 28 -175 9 -33 20 -55 28 -55 34 0 66 130 73
295 2 41 6 89 10 105 4 17 10 77 12 135 3 58 7 121 8 140 3 44 25 195 34 235
9 36 7 185 -3 310 -4 50 -7 137 -8 195 -2 91 -5 112 -27 153 -16 30 -35 50
-53 57 -15 5 -40 18 -54 30 -31 24 -32 24 -63 0z"/>
<path d="M770 3825 c-10 -12 -10 -21 -1 -41 6 -14 11 -35 11 -47 0 -37 124
-404 155 -459 8 -14 15 -33 15 -41 0 -8 13 -45 29 -83 15 -38 36 -96 46 -129
9 -33 30 -89 45 -125 15 -36 34 -83 41 -105 20 -64 59 -112 59 -72 0 7 9 31
20 52 l20 40 -22 65 c-12 36 -26 70 -30 77 -12 16 -48 143 -48 169 0 12 -7 27
-15 34 -8 7 -13 16 -10 20 2 4 -5 24 -15 46 -11 21 -20 49 -20 62 0 13 -12 49
-26 80 -40 86 -50 111 -70 177 -10 33 -22 66 -28 74 -15 20 -36 82 -36 109 0
15 -17 41 -45 68 -50 49 -57 51 -75 29z"/>
<path d="M2409 3583 c-8 -10 -23 -34 -33 -53 -10 -19 -35 -53 -55 -75 -20 -22
-45 -58 -56 -80 -24 -48 -95 -147 -135 -188 -17 -17 -30 -37 -30 -44 0 -7 -9
-18 -20 -25 -11 -7 -20 -20 -20 -28 -1 -36 -88 -172 -161 -251 -40 -43 -43
-70 -14 -135 l25 -57 30 28 c17 16 30 34 30 41 0 6 7 17 15 24 8 7 58 70 111
141 53 71 101 129 105 129 5 0 9 6 10 13 0 18 112 167 224 299 74 87 71 81 86
151 13 59 8 76 -22 80 -23 4 -40 18 -34 28 4 5 2 9 -4 9 -5 0 -16 2 -23 5 -8
3 -21 -2 -29 -12z"/>
<path d="M2940 2998 c-60 -36 -199 -110 -240 -128 -14 -5 -38 -19 -55 -29 -16
-11 -36 -20 -43 -20 -7 -1 -52 -25 -101 -54 -48 -29 -103 -60 -122 -67 -19 -8
-56 -29 -84 -47 -27 -18 -53 -33 -58 -33 -5 0 -42 -23 -83 -51 -61 -43 -77
-49 -89 -39 -13 10 -15 9 -15 -12 0 -22 22 -112 37 -148 3 -8 5 -19 4 -25 -2
-5 8 0 21 13 14 12 29 22 34 22 5 0 15 9 22 21 7 12 16 18 19 15 6 -6 83 44
102 68 8 9 24 16 36 16 12 0 28 7 35 15 7 8 16 13 20 10 4 -3 13 2 20 10 15
18 50 35 137 65 34 12 72 33 84 46 12 13 31 24 41 24 10 0 37 12 61 27 59 38
87 53 102 53 7 0 29 12 50 26 21 14 46 23 56 21 10 -3 26 4 35 14 9 10 25 19
34 19 21 0 43 24 47 52 2 11 10 29 17 40 13 18 12 25 -11 59 -30 45 -58 50
-113 17z"/>
<path d="M316 2841 c-3 -4 -16 -6 -29 -4 -29 6 -52 -20 -42 -44 4 -10 8 -27 9
-38 2 -39 86 -74 191 -79 24 -2 68 -29 112 -69 17 -16 36 -26 42 -23 6 4 26
-4 44 -18 19 -15 38 -26 43 -26 5 -1 25 -14 44 -30 19 -17 40 -30 47 -30 7 0
22 -4 33 -10 11 -5 29 -14 40 -20 11 -5 26 -10 34 -10 7 0 26 -16 41 -36 17
-22 33 -33 41 -30 17 7 92 -38 101 -60 3 -8 13 -14 23 -12 9 2 24 -3 33 -11
28 -23 49 3 43 53 -3 23 -5 46 -5 53 -1 6 -16 16 -35 23 -18 6 -64 37 -101 69
-53 46 -74 58 -95 56 -19 -3 -34 5 -54 26 -16 16 -34 28 -40 26 -6 -2 -22 4
-35 14 -13 10 -28 16 -33 13 -5 -4 -28 12 -50 35 -21 23 -45 41 -51 39 -7 -1
-23 4 -36 11 -15 8 -38 11 -66 7 -37 -6 -45 -4 -61 16 -35 43 -87 80 -106 75
-11 -3 -25 4 -37 19 -20 25 -36 30 -45 15z"/>
<path d="M2765 2176 c-14 -10 -28 -11 -56 -3 -21 5 -56 6 -76 2 -21 -4 -76 -9
-123 -11 -158 -5 -231 -13 -246 -25 -10 -8 -18 -9 -25 -2 -10 10 -57 -1 -89
-22 -8 -5 -22 -8 -30 -7 -9 1 -27 -9 -40 -23 -19 -20 -26 -23 -39 -12 -17 13
17 -35 64 -90 20 -23 39 -35 55 -34 14 0 52 1 84 1 32 0 64 4 70 8 6 4 79 8
161 10 83 1 159 3 170 3 30 1 135 -11 180 -21 25 -6 44 -5 51 1 7 6 15 6 18 1
3 -5 25 -10 49 -10 24 -1 63 -6 87 -11 29 -6 51 -6 69 1 14 6 56 10 92 9 l66
-3 20 29 c11 15 18 33 16 40 -2 6 1 14 6 18 18 10 12 44 -8 55 -11 5 -27 23
-37 38 l-16 29 -102 11 c-55 6 -121 9 -146 6 -25 -3 -64 -1 -87 4 -28 7 -45 6
-52 -1 -8 -8 -19 -6 -40 6 -24 14 -31 14 -46 3z"/>
<path d="M805 2081 c-3 -6 -12 -8 -19 -5 -8 3 -17 1 -20 -5 -4 -6 -13 -8 -21
-4 -8 3 -23 2 -32 -3 -10 -4 -76 -8 -148 -9 -120 -2 -186 -6 -305 -21 -66 -9
-136 -47 -146 -81 -13 -44 -11 -57 11 -68 11 -6 21 -20 23 -32 4 -29 38 -39
61 -19 11 10 36 16 70 16 29 0 62 5 74 12 23 12 157 20 332 18 141 -1 129 -1
205 9 36 4 70 5 75 0 6 -4 54 -10 108 -13 l97 -6 9 22 c5 13 18 31 29 41 26
23 25 66 -2 88 -11 10 -39 23 -61 29 -22 7 -49 15 -60 19 -11 4 -74 9 -140 10
-66 2 -123 5 -127 7 -4 2 -9 0 -13 -5z"/>
<path d="M1152 1775 c-12 -9 -30 -15 -40 -13 -10 1 -31 -6 -48 -17 -42 -29
-67 -43 -84 -50 -8 -4 -31 -13 -50 -22 -19 -8 -37 -15 -40 -15 -12 0 -58 -28
-69 -42 -8 -9 -23 -16 -35 -16 -11 0 -30 -7 -40 -15 -11 -8 -30 -15 -42 -15
-12 0 -33 -9 -47 -20 -14 -11 -32 -20 -39 -20 -8 0 -18 -3 -22 -7 -4 -5 -12
-8 -16 -8 -5 0 -25 -17 -44 -39 -30 -32 -39 -36 -51 -26 -12 10 -26 2 -79 -50
-39 -37 -71 -60 -79 -57 -9 3 -32 -13 -57 -38 l-43 -43 8 -48 c7 -46 22 -83
38 -95 5 -4 28 4 52 17 24 12 46 20 49 17 3 -4 6 1 6 9 0 9 7 21 15 28 12 10
18 10 31 0 13 -11 23 -6 68 39 28 28 55 49 59 45 3 -4 14 3 24 15 l18 21 27
-14 27 -14 17 19 c10 11 24 17 31 15 15 -6 18 10 3 19 -16 10 8 35 32 35 10 0
30 7 43 16 14 9 31 14 38 11 7 -3 21 1 31 9 11 7 22 11 26 9 4 -3 13 2 20 10
7 8 18 15 24 15 6 0 23 7 38 14 16 8 36 14 45 14 10 -1 41 13 69 30 28 18 65
35 82 38 38 8 47 18 56 63 3 19 13 42 22 52 19 21 25 90 9 112 -18 24 -57 30
-83 12z"/>
<path d="M2030 1718 c0 -15 30 -120 36 -127 2 -2 11 2 19 9 13 11 20 9 43 -12
38 -35 72 -52 104 -50 17 2 32 -5 41 -18 7 -11 17 -17 20 -14 4 4 13 1 21 -5
8 -7 19 -10 24 -7 6 3 15 -1 22 -9 7 -8 22 -15 34 -15 12 0 37 -11 56 -24 46
-30 120 -66 139 -66 8 0 23 -7 33 -16 13 -13 21 -14 31 -5 11 9 17 8 27 -4 7
-8 16 -13 20 -10 5 3 17 -6 28 -20 11 -14 24 -25 29 -25 14 0 72 -30 78 -40 3
-4 14 -6 24 -3 19 5 99 -36 120 -61 6 -7 22 -11 35 -9 15 3 28 -2 37 -14 28
-37 48 -47 65 -32 13 10 19 8 40 -14 14 -15 28 -27 32 -27 20 1 39 30 49 75
10 42 9 55 -5 85 -17 35 -63 68 -96 69 -10 1 -54 19 -98 41 -44 22 -89 40 -99
40 -10 0 -21 5 -24 10 -3 6 -14 10 -24 10 -10 0 -29 9 -43 19 -14 11 -47 25
-74 31 -27 7 -71 23 -97 36 -27 13 -58 24 -69 24 -11 0 -32 6 -46 13 -107 54
-140 67 -156 61 -10 -4 -25 1 -39 13 -37 35 -150 78 -223 88 -21 2 -56 8 -76
11 -29 5 -38 3 -38 -8z"/>
<path d="M1476 1392 c-9 -10 -13 -21 -10 -25 3 -3 1 -21 -5 -40 -28 -84 -37
-393 -16 -537 9 -63 21 -171 25 -240 12 -176 20 -222 40 -245 10 -11 27 -47
38 -80 l19 -60 8 58 c6 46 13 62 36 81 26 22 29 31 29 83 0 32 -4 85 -10 118
-5 33 -12 87 -14 120 -3 33 -10 96 -17 140 -17 117 -10 495 10 519 5 6 12 32
16 59 l7 47 -25 0 c-14 0 -28 4 -31 8 -10 17 -83 12 -100 -6z"/>
<path d="M1110 1369 c-8 -19 -26 -50 -42 -69 -15 -19 -28 -41 -28 -48 0 -8
-16 -32 -35 -55 -19 -22 -35 -46 -35 -53 0 -8 -13 -28 -28 -46 -16 -18 -36
-55 -47 -83 -10 -27 -23 -57 -30 -65 -7 -8 -29 -51 -49 -95 -20 -44 -43 -92
-51 -107 -8 -14 -15 -33 -15 -42 0 -8 -11 -36 -25 -62 -24 -46 -42 -98 -50
-152 -13 -75 -27 -134 -39 -157 -10 -18 -11 -37 -5 -63 4 -20 10 -62 12 -92 4
-49 7 -56 33 -66 24 -10 30 -9 45 10 9 11 24 42 32 67 9 26 39 93 67 149 27
56 50 106 50 111 0 5 20 38 45 75 25 36 45 74 45 86 0 11 10 34 22 51 13 17
23 36 23 42 0 5 8 27 18 49 9 21 17 46 17 56 0 10 7 23 15 30 8 7 15 20 15 30
0 9 10 29 21 44 12 16 25 51 29 84 9 68 37 145 68 189 12 17 22 35 22 40 0 5
13 35 29 66 16 31 25 59 20 62 -4 3 -6 11 -3 18 2 7 -3 13 -13 13 -10 1 -41 5
-69 9 l-51 7 -13 -33z"/>
<path d="M1954 1250 c-12 -5 -24 -15 -27 -23 -5 -15 10 -67 28 -98 18 -30 357
-374 386 -391 16 -10 29 -24 29 -32 0 -8 9 -18 20 -21 11 -4 28 -19 38 -33 9
-15 43 -59 74 -99 32 -39 58 -75 58 -80 0 -12 86 -103 97 -103 18 0 52 57 41
68 -6 6 -7 16 0 28 13 27 23 97 14 109 -4 6 -16 15 -27 21 -11 6 -21 20 -23
30 -1 11 -16 27 -33 36 -17 10 -28 22 -24 28 3 5 1 19 -5 30 -12 23 -124 134
-157 156 -13 8 -23 21 -23 29 0 8 -3 15 -7 15 -5 0 -71 61 -148 135 -102 99
-150 138 -176 145 -20 6 -49 20 -65 32 -32 26 -41 28 -70 18z"/>
</g>
</svg>
