<?xml version="1.0" standalone="no"?>
<!DOCTYPE svg PUBLIC "-//W3C//DTD SVG 20010904//EN"
 "http://www.w3.org/TR/2001/REC-SVG-20010904/DTD/svg10.dtd">
<svg version="1.0" xmlns="http://www.w3.org/2000/svg"
 width="671.000000pt" height="550.000000pt" viewBox="0 0 671.000000 550.000000"
 preserveAspectRatio="xMidYMid meet">
<metadata>
Created by potrace 1.16, written by Peter Selinger 2001-2019
</metadata>
<g transform="translate(0.000000,550.000000) scale(0.100000,-0.100000)"
fill="#000000" stroke="none">
<path d="M3044 5322 c-13 -9 -29 -69 -50 -192 -9 -52 -24 -103 -32 -113 l-16
-18 -29 31 c-34 36 -40 37 -61 5 -14 -21 -17 -57 -17 -227 -1 -111 -5 -215
-10 -232 -5 -17 -9 -87 -10 -156 0 -69 -5 -145 -11 -170 -6 -25 -12 -124 -14
-220 -2 -96 -6 -188 -8 -205 -7 -41 -7 -240 -1 -290 10 -86 27 -143 50 -173 2
-2 18 3 36 11 19 7 40 12 47 9 20 -6 39 15 40 47 0 17 5 38 11 49 7 13 6 27
-5 47 -14 27 -36 193 -28 207 2 3 6 69 9 145 2 76 7 172 11 213 4 41 7 82 7
90 0 8 4 20 9 26 4 7 8 25 7 40 -1 16 4 49 11 74 7 25 14 73 15 107 2 34 5 65
7 70 3 4 6 28 7 53 1 25 4 52 7 62 3 9 0 19 -6 23 -7 4 -7 12 0 24 5 10 12 36
14 57 3 22 13 73 22 114 9 41 18 98 20 125 3 28 9 66 13 85 19 75 18 217 0
260 -14 30 -25 36 -45 22z"/>
<path d="M1449 4863 c-7 -158 30 -254 156 -405 28 -33 55 -68 60 -78 14 -23
155 -182 178 -198 9 -7 17 -19 17 -27 0 -7 15 -31 33 -53 17 -22 55 -69 82
-104 28 -34 95 -117 150 -183 103 -123 165 -205 165 -217 0 -4 13 -26 29 -50
16 -24 55 -93 86 -153 65 -125 80 -145 108 -145 11 0 17 3 14 7 -4 3 -2 12 4
20 6 7 9 26 6 42 -7 36 8 51 44 44 16 -3 36 -2 46 2 23 10 29 12 48 14 26 2
17 17 -57 93 -40 41 -102 110 -138 153 -36 43 -84 99 -107 125 -24 26 -41 49
-38 51 2 3 -27 36 -65 74 -39 38 -70 73 -70 78 0 5 -13 26 -30 47 -16 21 -30
42 -30 47 0 5 -20 29 -45 53 -25 24 -45 49 -45 55 0 6 -11 22 -25 35 -14 13
-24 29 -22 34 2 6 -6 16 -17 21 -15 8 -20 18 -18 38 2 17 -1 27 -10 27 -16 0
-99 94 -129 146 -12 21 -37 66 -54 99 -52 98 -58 105 -87 105 -32 0 -80 53
-143 157 -32 54 -46 69 -68 71 -24 3 -27 0 -28 -25z"/>
<path d="M4106 4648 c-19 -29 -44 -64 -55 -78 -11 -14 -21 -30 -21 -36 0 -6
-25 -33 -57 -58 -31 -26 -77 -73 -103 -105 -26 -33 -94 -103 -151 -157 -118
-111 -160 -154 -197 -204 -33 -43 -120 -152 -162 -202 -42 -49 -159 -245 -167
-277 -3 -14 -13 -39 -21 -56 -8 -16 -21 -41 -28 -55 -7 -14 -11 -46 -9 -70 2
-25 4 -49 4 -54 1 -5 4 -6 8 -3 3 4 11 3 17 -2 6 -4 28 -11 48 -14 l38 -6 90
104 c50 57 101 112 113 122 24 18 42 51 38 67 -1 5 14 26 35 47 35 36 53 61
73 105 5 11 21 28 36 38 15 10 24 20 21 23 -8 8 14 34 24 28 13 -8 92 114 95
145 0 8 154 211 202 268 15 18 30 38 32 45 2 6 12 21 22 32 64 69 149 203 156
245 10 61 2 99 -28 138 l-18 24 -35 -54z"/>
<path d="M820 4371 c-10 -19 -4 -77 10 -96 4 -5 6 -18 5 -27 -2 -9 6 -24 16
-34 10 -9 19 -23 19 -30 0 -13 224 -214 239 -214 4 0 52 -43 107 -95 54 -52
102 -95 106 -95 5 0 35 -25 68 -55 33 -30 63 -55 67 -55 5 0 46 -36 93 -80 47
-44 89 -80 94 -80 10 0 47 -32 106 -92 20 -21 44 -38 52 -38 9 0 22 -7 29 -16
7 -9 36 -26 64 -39 68 -30 135 -86 299 -247 76 -76 143 -138 148 -138 19 0 48
21 48 35 0 8 18 26 40 40 22 14 40 29 40 34 0 8 -146 153 -195 194 -69 56
-203 155 -241 178 -43 26 -111 74 -255 182 -49 37 -93 67 -97 67 -4 0 -18 11
-32 25 -23 23 -149 128 -264 221 -28 22 -105 92 -171 155 -66 63 -143 132
-170 154 -28 22 -80 68 -118 102 -72 67 -90 74 -107 44z"/>
<path d="M4507 3659 c-38 -28 -87 -57 -110 -65 -23 -8 -58 -26 -77 -39 -19
-13 -52 -32 -72 -42 -20 -10 -83 -43 -140 -74 -57 -31 -175 -89 -263 -129 -88
-40 -164 -76 -170 -80 -5 -4 -23 -10 -40 -14 -47 -11 -217 -97 -248 -125 -21
-19 -30 -22 -39 -13 -9 9 -20 5 -46 -15 -19 -14 -57 -35 -86 -45 -28 -11 -54
-25 -58 -31 -13 -20 -9 -54 7 -67 8 -7 12 -17 8 -24 -12 -18 -2 -60 19 -83 11
-12 17 -27 13 -33 -4 -7 11 -30 36 -56 l44 -45 70 2 c104 2 316 -10 350 -21
31 -9 76 -14 85 -10 17 9 451 7 527 -2 77 -10 106 -9 185 6 90 16 124 17 507
12 88 -1 105 2 115 16 19 31 -15 51 -111 64 -93 13 -145 14 -768 18 -214 2
-466 8 -560 15 -93 6 -230 13 -302 14 -141 3 -175 13 -132 40 60 36 261 147
268 147 4 0 40 18 81 40 41 22 95 50 120 61 25 11 52 26 60 34 8 7 26 16 40
20 14 4 43 20 65 34 51 32 142 82 225 121 36 17 72 36 80 41 8 5 38 20 65 34
28 14 68 37 90 50 22 13 56 33 75 44 19 11 41 29 48 40 7 12 19 21 28 21 23 0
131 67 149 93 20 29 19 64 -2 75 -50 25 -67 22 -136 -29z"/>
<path d="M1680 2872 c-258 -15 -615 -30 -622 -26 -5 3 -156 5 -336 5 -180 0
-388 4 -462 8 -84 6 -139 5 -147 -1 -16 -13 -10 -55 11 -76 l17 -17 422 -3
c232 -1 437 -2 456 -2 22 0 43 -8 58 -22 21 -19 33 -22 110 -20 47 1 90 -1 96
-5 12 -7 114 -15 180 -13 27 1 54 -3 60 -8 26 -21 87 -23 117 -5 23 13 35 15
48 7 12 -8 24 -8 40 -1 15 7 30 7 47 -1 31 -14 131 -16 140 -3 3 6 17 6 35 -1
23 -7 34 -7 45 2 12 10 18 10 30 0 12 -10 19 -10 27 -2 13 13 70 16 81 5 4 -3
46 -8 94 -10 49 -2 113 -5 144 -6 62 -3 106 19 96 48 -4 8 -2 17 3 20 6 4 10
15 10 25 0 14 -10 21 -36 26 -31 6 -41 15 -70 62 -6 11 -559 22 -694 14z"/>
<path d="M2349 2545 c-79 -34 -262 -119 -291 -135 -10 -6 -26 -10 -36 -10 -10
0 -23 -5 -29 -11 -6 -6 -24 -12 -40 -14 -15 -1 -60 -18 -100 -38 -39 -19 -73
-33 -76 -31 -2 3 -10 -2 -17 -11 -7 -8 -24 -15 -38 -15 -14 0 -33 -6 -41 -14
-25 -21 -173 -94 -196 -96 -5 -1 -17 -8 -27 -16 -9 -9 -22 -17 -30 -18 -28 -6
-74 -28 -93 -45 -28 -25 -125 -76 -215 -113 -41 -17 -79 -34 -85 -38 -5 -4
-55 -31 -110 -60 -121 -64 -200 -110 -280 -163 -93 -62 -96 -66 -82 -90 7 -12
20 -28 31 -37 24 -21 12 -31 -74 -59 -95 -31 -99 -35 -72 -64 12 -13 22 -29
22 -36 0 -11 3 -11 15 -1 8 7 34 14 57 15 24 2 56 8 71 14 16 6 31 11 35 11 4
0 13 9 19 19 8 13 19 18 33 14 14 -4 26 3 41 21 11 14 25 24 30 20 6 -3 39 8
74 25 35 17 78 31 96 31 20 0 42 9 56 22 13 12 29 23 36 24 34 6 129 57 181
98 33 25 67 46 75 46 14 0 81 31 146 67 11 6 31 16 45 22 14 7 45 23 69 37 24
13 46 22 49 19 3 -3 14 2 24 12 10 9 21 13 25 10 4 -4 17 3 31 15 13 13 24 22
25 20 1 -2 15 1 30 7 16 6 35 11 43 11 9 0 41 22 72 48 31 27 95 68 142 91
110 55 147 76 169 95 10 9 20 16 24 16 3 0 39 16 79 35 76 36 119 78 132 128
3 15 21 37 40 49 41 27 61 72 39 90 -24 19 -45 16 -124 -17z m-1250 -749 c16
-19 0 -30 -113 -75 -76 -30 -98 -36 -106 -26 -13 16 26 47 109 87 64 30 94 34
110 14z"/>
<path d="M3238 2403 l-27 -36 22 -27 c20 -24 87 -60 113 -60 6 0 22 -9 36 -19
23 -18 236 -128 359 -185 31 -14 64 -35 74 -46 12 -14 25 -18 42 -14 13 4 30
1 38 -6 25 -21 124 -78 148 -86 12 -4 36 -17 53 -30 17 -13 38 -24 46 -24 25
0 157 -65 181 -89 6 -6 17 -11 25 -11 8 0 31 -14 52 -30 21 -17 42 -30 47 -29
4 1 21 -3 36 -9 16 -7 34 -12 41 -12 8 0 19 -7 26 -14 6 -8 35 -23 63 -32 29
-9 72 -27 97 -40 25 -13 52 -24 62 -24 9 0 20 -5 23 -10 12 -19 116 -80 126
-74 6 3 19 -2 29 -11 26 -24 54 -16 58 17 3 22 -4 31 -45 54 -26 15 -70 43
-96 62 -27 19 -94 54 -150 79 -101 44 -137 66 -137 87 0 6 -22 22 -48 34 -27
13 -64 33 -83 45 -55 34 -234 124 -262 131 -15 3 -46 19 -69 35 -24 16 -68 39
-98 51 -30 12 -71 29 -90 38 -19 8 -37 16 -40 17 -21 6 -58 23 -140 62 -100
47 -113 53 -145 71 -11 6 -76 39 -145 72 -69 34 -132 67 -140 74 -33 29 -54
26 -82 -11z"/>
<path d="M3244 2103 c-12 -2 -34 -17 -49 -34 l-29 -29 28 -29 c16 -17 34 -39
40 -49 6 -11 54 -85 107 -163 136 -205 179 -274 179 -291 0 -13 24 -51 118
-183 17 -25 32 -49 32 -53 0 -4 24 -43 54 -87 30 -44 69 -109 87 -145 45 -85
95 -133 188 -176 42 -20 110 -61 151 -93 92 -69 173 -111 200 -104 21 6 24 12
14 38 -6 15 -106 93 -177 139 -22 13 -28 24 -24 42 3 20 -13 41 -92 119 -54
52 -116 126 -141 166 -25 39 -55 86 -67 105 -13 19 -23 40 -23 46 0 6 -25 37
-55 70 -31 33 -66 81 -80 107 -13 27 -35 62 -49 79 -15 16 -26 33 -26 37 0 3
-11 21 -25 39 -14 18 -25 36 -25 40 0 5 -33 58 -73 120 -39 61 -77 118 -82
127 -54 87 -127 170 -147 168 -7 -1 -23 -4 -34 -6z"/>
<path d="M2360 1966 c-35 -31 -104 -132 -129 -191 -12 -27 -25 -55 -29 -61
-40 -62 -63 -93 -71 -98 -5 -4 -12 -19 -16 -35 -3 -16 -15 -37 -26 -47 -10 -9
-19 -24 -19 -32 0 -8 -13 -31 -28 -51 -16 -20 -31 -43 -34 -51 -4 -8 -29 -43
-57 -78 -28 -34 -51 -65 -51 -68 0 -3 -11 -20 -25 -38 -14 -18 -25 -36 -25
-40 0 -3 -21 -35 -47 -69 -55 -73 -69 -93 -86 -127 -6 -14 -32 -51 -57 -84
-25 -32 -51 -70 -59 -85 -8 -14 -37 -55 -66 -91 -28 -36 -52 -67 -52 -70 0
-12 -52 -101 -77 -132 -32 -38 -110 -145 -145 -196 -25 -37 -20 -64 11 -70 16
-3 144 124 200 198 22 29 54 55 90 73 35 17 72 46 96 75 38 46 122 169 122
178 0 3 11 20 24 37 14 18 27 43 31 58 3 14 38 68 77 120 38 51 74 103 79 114
5 11 17 32 27 46 9 14 30 46 46 70 16 24 54 82 84 129 82 125 91 141 183 308
46 85 107 181 136 215 l52 61 -34 25 c-47 32 -93 35 -125 7z"/>
<path d="M2853 1920 c-15 -17 -29 -42 -30 -58 0 -15 -4 -43 -7 -62 -3 -19 -8
-99 -10 -177 -3 -79 -7 -147 -10 -152 -5 -8 -20 -212 -18 -246 0 -5 3 -59 5
-120 3 -60 9 -121 14 -135 5 -14 8 -99 6 -190 -1 -91 -3 -219 -4 -285 -2 -120
5 -159 46 -280 25 -74 33 -85 70 -101 68 -28 83 -10 44 52 -11 19 -19 44 -18
56 2 13 0 29 -5 37 -15 23 -16 272 -1 301 9 17 12 79 13 207 0 99 3 186 6 191
3 6 1 14 -5 17 -5 4 -7 14 -4 24 10 24 15 270 6 275 -4 3 -7 20 -6 38 2 18 0
37 -3 43 -17 29 -16 495 1 523 4 6 3 13 -3 17 -6 4 -8 10 -6 14 3 4 -8 15 -24
24 l-28 17 -29 -30z"/>
</g>
</svg>
